<svg style="display: none;">
	<symbol id="top-bg" viewBox="0 0 1440 686" xmlns="http://www.w3.org/2000/svg">
		<g opacity="0.2" filter="url(#filter0_f_0_1)">
			<circle cx="958" cy="-40" r="952" fill="#CC4391" />
		</g>
		<circle cx="1318" cy="479" r="253.5" stroke="#C94C9C" />
		<circle cx="1273" cy="434" r="298.5" stroke="#C94C9C" />
		<g filter="url(#filter1_f_0_1)">
			<circle cx="1202.5" cy="363.5" r="369" stroke="#C94C9C" />
		</g>
		<g filter="url(#filter2_f_0_1)">
			<circle cx="1117.5" cy="278.5" r="454" stroke="#C94C9C" />
		</g>
		<g filter="url(#filter3_f_0_1)">
			<circle cx="992.5" cy="153.5" r="579" stroke="#C94C9C" />
		</g>
		<g filter="url(#filter4_f_0_1)">
			<circle cx="865" cy="26" r="706.5" stroke="#C94C9C" />
		</g>
		<g filter="url(#filter5_f_0_1)">
			<circle cx="695" cy="-144" r="876.5" stroke="#C94C9C" />
		</g>
		<defs>
			<filter id="filter0_f_0_1" x="-294" y="-1292" width="2504" height="2504" filterUnits="userSpaceOnUse" color-interpolation-filters="sRGB">
				<feFlood flood-opacity="0" result="BackgroundImageFix" />
				<feBlend mode="normal" in="SourceGraphic" in2="BackgroundImageFix" result="shape" />
				<feGaussianBlur stdDeviation="150" result="effect1_foregroundBlur_0_1" />
			</filter>
			<filter id="filter1_f_0_1" x="831" y="-8" width="743" height="743" filterUnits="userSpaceOnUse" color-interpolation-filters="sRGB">
				<feFlood flood-opacity="0" result="BackgroundImageFix" />
				<feBlend mode="normal" in="SourceGraphic" in2="BackgroundImageFix" result="shape" />
				<feGaussianBlur stdDeviation="1" result="effect1_foregroundBlur_0_1" />
			</filter>
			<filter id="filter2_f_0_1" x="659" y="-180" width="917" height="917" filterUnits="userSpaceOnUse" color-interpolation-filters="sRGB">
				<feFlood flood-opacity="0" result="BackgroundImageFix" />
				<feBlend mode="normal" in="SourceGraphic" in2="BackgroundImageFix" result="shape" />
				<feGaussianBlur stdDeviation="2" result="effect1_foregroundBlur_0_1" />
			</filter>
			<filter id="filter3_f_0_1" x="407" y="-432" width="1171" height="1171" filterUnits="userSpaceOnUse" color-interpolation-filters="sRGB">
				<feFlood flood-opacity="0" result="BackgroundImageFix" />
				<feBlend mode="normal" in="SourceGraphic" in2="BackgroundImageFix" result="shape" />
				<feGaussianBlur stdDeviation="3" result="effect1_foregroundBlur_0_1" />
			</filter>
			<filter id="filter4_f_0_1" x="150" y="-689" width="1430" height="1430" filterUnits="userSpaceOnUse" color-interpolation-filters="sRGB">
				<feFlood flood-opacity="0" result="BackgroundImageFix" />
				<feBlend mode="normal" in="SourceGraphic" in2="BackgroundImageFix" result="shape" />
				<feGaussianBlur stdDeviation="4" result="effect1_foregroundBlur_0_1" />
			</filter>
			<filter id="filter5_f_0_1" x="-192" y="-1031" width="1774" height="1774" filterUnits="userSpaceOnUse" color-interpolation-filters="sRGB">
				<feFlood flood-opacity="0" result="BackgroundImageFix" />
				<feBlend mode="normal" in="SourceGraphic" in2="BackgroundImageFix" result="shape" />
				<feGaussianBlur stdDeviation="5" result="effect1_foregroundBlur_0_1" />
			</filter>
		</defs>
	</symbol>
	<symbol id="header-logo" viewBox="0 0 128 26" xmlns="http://www.w3.org/2000/svg">
		<g clip-path="url(#clip0_68_255)">
			<path d="M13.2338 25.9989C20.5426 25.9989 26.4675 20.1788 26.4675 12.9994C26.4675 5.82004 20.5426 0 13.2338 0C5.92496 0 0 5.82004 0 12.9994C0 20.1788 5.92496 25.9989 13.2338 25.9989Z" fill="#C94C9C" />
			<path d="M16.0418 24.1912C21.549 24.1912 26.0134 19.8059 26.0134 14.3963C26.0134 8.98667 21.549 4.60132 16.0418 4.60132C10.5347 4.60132 6.07031 8.98667 6.07031 14.3963C6.07031 19.8059 10.5347 24.1912 16.0418 24.1912Z" fill="#CE3E96" />
			<path d="M26.0138 14.3963C26.0149 15.6833 25.7639 16.9584 25.2745 18.1522C24.4543 20.165 22.995 21.8643 21.1133 22.9975C19.2316 24.1307 17.028 24.6375 14.8298 24.4425C12.6316 24.2475 10.556 23.3612 8.91143 21.9152C7.26686 20.4692 6.14101 18.5407 5.70111 16.4161C5.56501 15.7511 5.49537 15.0746 5.49318 14.3963C5.49028 12.7156 5.91573 11.061 6.73073 9.58322C7.54574 8.10547 8.72437 6.85163 10.1592 5.93604C11.5939 5.02044 13.2392 4.47222 14.945 4.34136C16.6508 4.2105 18.3628 4.50116 19.9249 5.18684C21.135 5.71717 22.2284 6.47372 23.1444 7.41431C24.0555 8.34653 24.7769 9.4411 25.2699 10.6392C25.761 11.8331 26.0136 13.1086 26.0138 14.3963ZM26.0138 14.3963C26.0111 13.7545 25.9449 13.1146 25.8163 12.4854C25.4244 10.5931 24.4549 8.86299 23.0369 7.52551C22.1095 6.64913 21.0128 5.96408 19.8114 5.51077C18.6101 5.05746 17.3285 4.84507 16.0423 4.88614C14.2207 4.93738 12.4506 5.49201 10.9353 6.4864C9.41994 7.48079 8.22067 8.87466 7.47505 10.5081C6.72944 12.1415 6.46769 13.9483 6.71985 15.7212C6.97201 17.4941 7.72785 19.1612 8.90066 20.5314C10.0735 21.9015 11.6157 22.9191 13.3505 23.4675C15.0853 24.0159 16.9423 24.0727 18.7085 23.6316C20.4746 23.1904 22.0784 22.2692 23.3358 20.9734C24.5933 19.6777 25.4534 18.06 25.8175 16.306C25.9452 15.6771 26.0109 15.0376 26.0138 14.3963Z" fill="white" />
			<path d="M18.5083 22.8806C22.6118 22.8806 25.9384 19.6129 25.9384 15.582C25.9384 11.5511 22.6118 8.28345 18.5083 8.28345C14.4047 8.28345 11.0781 11.5511 11.0781 15.582C11.0781 19.6129 14.4047 22.8806 18.5083 22.8806Z" fill="#D1519D" />
			<path d="M25.9374 15.5821C25.9383 17.0569 25.4979 18.4994 24.6709 19.7303C23.8439 20.9612 22.6669 21.9262 21.2861 22.5054C19.9053 23.0845 18.3817 23.2522 16.9047 22.9877C15.4277 22.7231 14.0624 22.038 12.9786 21.0174C11.8533 19.9604 11.0835 18.5909 10.7722 17.0924C10.6707 16.5951 10.6184 16.0893 10.6162 15.5821C10.6177 13.8343 11.2382 12.1416 12.3715 10.7942C13.5048 9.44683 15.0801 8.52886 16.8271 8.1978C18.5742 7.86674 20.384 8.14322 21.9462 8.9798C23.5084 9.81638 24.7255 11.1609 25.3887 12.7827C25.7524 13.6727 25.9387 14.6231 25.9374 15.5821ZM25.9374 15.5821C25.9357 13.9396 25.3521 12.3488 24.2867 11.0829C23.2212 9.8169 21.7405 8.95466 20.0985 8.6441C18.4565 8.33355 16.7557 8.59404 15.2879 9.38088C13.8201 10.1677 12.6769 11.4319 12.0544 12.9563C11.4383 14.4574 11.365 16.1207 11.8468 17.6685C12.3286 19.2163 13.3363 20.5549 14.7017 21.4608C16.0671 22.3667 17.7076 22.7852 19.3492 22.6462C20.9908 22.5073 22.5342 21.8194 23.7218 20.6974C24.4247 20.0365 24.984 19.2424 25.3658 18.3632C25.7476 17.484 25.944 16.5379 25.9432 15.5821H25.9374Z" fill="white" />
			<path d="M13.8252 17.9366H17.114C17.114 17.9559 17.2503 19.6387 19.4891 19.6387C20.6951 19.6387 21.7856 18.9318 21.7856 18.1636C21.7856 16.575 18.8468 16.4615 18.0093 16.2901C16.5306 16.0031 14.0204 15.354 14.0204 12.9994C14.0204 10.8003 16.414 9.00293 19.3343 9.00293C22.8957 9.00293 24.6481 10.781 24.6481 12.4446H21.5129C21.5129 12.1382 20.9873 11.4891 19.3331 11.4891C18.2241 11.4891 17.3092 12.1575 17.3092 12.9994C17.3092 14.0116 19.273 14.0116 19.9754 14.1274C21.7463 14.4519 25.0744 14.8729 25.0744 18.1602C25.0744 20.3014 22.5052 22.0988 19.4891 22.0988C15.6157 22.1045 13.8252 19.6194 13.8252 17.9366Z" fill="#2C2F31" />
			<path d="M35.3267 20.4137H29.1961L28.3402 22.1158H24.915L31.2004 9.69055H33.4969L39.5477 22.1147H36.1827L35.3267 20.4137ZM34.1392 17.9877L32.2516 13.9923L30.4611 17.9877H34.1392Z" fill="#2C2F31" />
			<path d="M51.6932 19.1326V22.1147H40.7363V9.68945H43.7721V19.1326H51.6932Z" fill="#2C2F31" />
			<path d="M56.7722 12.3651V14.5835H61.8908V17.2399H56.7722V19.4629H63.2528V22.1193H53.7363V9.68945H63.2528V12.3651H56.7722Z" fill="#2C2F31" />
			<path d="M81.7615 9.68945V22.1147H78.7246V15.7682L75.7477 22.1147H74.4238L71.5047 15.8317V22.1204H68.4492V9.68945H71.5047V9.74619L75.0857 16.7248L78.7246 9.68945H81.7615Z" fill="#2C2F31" />
			<path d="M86.8016 12.3651V14.5835H91.919V17.2399H86.8016V19.4629H93.2821V22.1193H83.7646V9.68945H93.2821V12.3651H86.8016Z" fill="#2C2F31" />
			<path d="M107.43 15.8828C107.432 16.7001 107.27 17.5099 106.953 18.2657C106.636 19.0214 106.171 19.7084 105.584 20.2873C104.996 20.8661 104.298 21.3255 103.53 21.639C102.761 21.9526 101.937 22.1143 101.105 22.1147H95.1123V9.68945H101.107C104.979 9.68945 107.43 12.4616 107.43 15.8828ZM104.394 15.8828C104.394 14.0286 102.993 12.6715 101.398 12.6715H98.147V19.1326H101.398C102.973 19.0759 104.394 17.7369 104.394 15.8828Z" fill="#2C2F31" />
			<path d="M111.673 9.68945V22.1147H108.637V9.68945H111.673Z" fill="#2C2F31" />
			<path d="M123.778 20.4137H117.648L116.792 22.1158H113.364L119.651 9.69055H121.947L128 22.1158H124.633L123.778 20.4137ZM122.591 17.9877L120.703 13.9923L118.909 17.9877H122.591Z" fill="#2C2F31" />
		</g>
		<defs>
			<clipPath id="clip0_68_255">
				<rect width="128" height="26" fill="white" />
			</clipPath>
		</defs>
	</symbol>
	<symbol id="footer-logo" viewBox="0 0 197 40" fill="none" xmlns="http://www.w3.org/2000/svg">
		<g clip-path="url(#clip0_80_133)">
			<path d="M20.3596 39.9982C31.604 39.9982 40.7193 31.0443 40.7193 19.9991C40.7193 8.95391 31.604 0 20.3596 0C9.11532 0 0 8.95391 0 19.9991C0 31.0443 9.11532 39.9982 20.3596 39.9982Z" fill="#C94C9C" />
			<path d="M24.6807 37.2174C33.1532 37.2174 40.0215 30.4707 40.0215 22.1483C40.0215 13.8258 33.1532 7.0791 24.6807 7.0791C16.2082 7.0791 9.33984 13.8258 9.33984 22.1483C9.33984 30.4707 16.2082 37.2174 24.6807 37.2174Z" fill="#CE3E96" />
			<path d="M40.0214 22.148C40.0231 24.1279 39.6369 26.0897 38.884 27.9264C37.6221 31.023 35.377 33.6372 32.4821 35.3806C29.5873 37.124 26.1971 37.9036 22.8152 37.6037C19.4333 37.3037 16.2402 35.9401 13.71 33.7155C11.1799 31.4909 9.44785 28.524 8.77109 25.2554C8.5617 24.2323 8.45456 23.1915 8.45119 22.148C8.44673 19.5623 9.10127 17.0167 10.3551 14.7433C11.609 12.4698 13.4223 10.5408 15.6296 9.13222C17.837 7.72361 20.3682 6.88019 22.9925 6.67887C25.6167 6.47754 28.2506 6.92471 30.6538 7.97961C32.5155 8.7955 34.1978 9.95942 35.6069 11.4065C37.0085 12.8407 38.1184 14.5246 38.8769 16.3679C39.6324 18.2046 40.021 20.167 40.0214 22.148V22.148ZM40.0214 22.148C40.0172 21.1607 39.9154 20.1761 39.7175 19.2082C39.1147 16.2969 37.6231 13.6352 35.4416 11.5776C34.0147 10.2293 32.3275 9.17536 30.4793 8.47796C28.6311 7.78056 26.6594 7.45381 24.6806 7.51699C21.8781 7.59581 19.155 8.44909 16.8237 9.97892C14.4924 11.5088 12.6473 13.6532 11.5002 16.1661C10.3531 18.6791 9.95045 21.4588 10.3384 24.1863C10.7263 26.9138 11.8892 29.4787 13.6935 31.5866C15.4978 33.6945 17.8705 35.2601 20.5394 36.1037C23.2083 36.9473 26.0652 37.0348 28.7824 36.3561C31.4996 35.6774 33.967 34.2601 35.9015 32.2667C37.8359 30.2733 39.1592 27.7845 39.7193 25.086C39.9158 24.1185 40.0169 23.1346 40.0214 22.148V22.148Z" fill="white" />
			<path d="M28.4739 35.2013C34.7871 35.2013 39.9049 30.1741 39.9049 23.9727C39.9049 17.7713 34.7871 12.7441 28.4739 12.7441C22.1608 12.7441 17.043 17.7713 17.043 23.9727C17.043 30.1741 22.1608 35.2013 28.4739 35.2013Z" fill="#D1519D" />
			<path d="M39.9041 23.9724C39.9054 26.2413 39.2278 28.4606 37.9556 30.3543C36.6833 32.248 34.8725 33.7327 32.7482 34.6236C30.624 35.5146 28.28 35.7727 26.0076 35.3657C23.7353 34.9587 21.6348 33.9046 19.9674 32.3345C18.2362 30.7082 17.0519 28.6015 16.5729 26.296C16.4168 25.5309 16.3364 24.7528 16.333 23.9724C16.3352 21.2836 17.29 18.6793 19.0335 16.6065C20.777 14.5336 23.2005 13.1213 25.8882 12.612C28.576 12.1027 31.3604 12.528 33.7638 13.8151C36.1671 15.1021 38.0396 17.1706 39.0599 19.6657C39.6194 21.035 39.906 22.497 39.9041 23.9724V23.9724ZM39.9041 23.9724C39.9014 21.4455 39.0035 18.9982 37.3645 17.0506C35.7254 15.1029 33.4473 13.7764 30.9212 13.2986C28.395 12.8208 25.7784 13.2216 23.5203 14.4321C21.2621 15.6427 19.5033 17.5875 18.5456 19.9328C17.5977 22.2422 17.485 24.8011 18.2262 27.1823C18.9674 29.5635 20.5178 31.6229 22.6184 33.0166C24.719 34.4103 27.2428 35.0541 29.7683 34.8403C32.2939 34.6266 34.6684 33.5683 36.4954 31.8422C37.5768 30.8254 38.4373 29.6037 39.0247 28.2511C39.612 26.8985 39.9142 25.443 39.913 23.9724H39.9041Z" fill="white" />
			<path d="M21.2695 27.5947H26.3292C26.3292 27.6244 26.5389 30.2133 29.9832 30.2133C31.8386 30.2133 33.5162 29.1258 33.5162 27.9439C33.5162 25.4999 28.995 25.3253 27.7066 25.0617C25.4317 24.62 21.5699 23.6215 21.5699 19.9991C21.5699 16.6158 25.2522 13.8506 29.745 13.8506C35.2241 13.8506 37.9201 16.5861 37.9201 19.1454H33.0968C33.0968 18.674 32.2882 17.6755 29.7432 17.6755C28.0371 17.6755 26.6296 18.7037 26.6296 19.9991C26.6296 21.5563 29.6508 21.5563 30.7314 21.7343C33.4558 22.2336 38.5759 22.8813 38.5759 27.9387C38.5759 31.2329 34.6234 33.9981 29.9832 33.9981C24.0242 34.0068 21.2695 30.1837 21.2695 27.5947Z" fill="white" />
			<path d="M54.349 31.4054H44.9174L43.6005 34.024H38.3311L48.0008 14.9082H51.5339L60.8429 34.0222H55.6659L54.349 31.4054ZM52.522 27.673L49.6181 21.5263L46.8634 27.673H52.522Z" fill="white" />
			<path d="M79.5277 29.4347V34.0225H62.6709V14.9067H67.3414V29.4347H79.5277Z" fill="white" />
			<path d="M87.3424 19.0232V22.4361H95.2172V26.5229H87.3424V29.9427H97.3125V34.0295H82.6719V14.9067H97.3125V19.0232H87.3424Z" fill="white" />
			<path d="M125.787 14.9067V34.0225H121.115V24.2586L116.535 34.0225H114.498L110.007 24.3564V34.0313H105.307V14.9067H110.007V14.994L115.517 25.7303L121.115 14.9067H125.787Z" fill="white" />
			<path d="M133.54 19.0232V22.4361H141.413V26.5229H133.54V29.9427H143.51V34.0295H128.868V14.9067H143.51V19.0232H133.54Z" fill="white" />
			<path d="M165.276 24.4349C165.28 25.6924 165.031 26.9382 164.543 28.1009C164.056 29.2636 163.339 30.3205 162.436 31.211C161.532 32.1016 160.458 32.8083 159.276 33.2907C158.094 33.7732 156.826 34.0218 155.546 34.0225H146.326V14.9067H155.548C161.505 14.9067 165.276 19.1716 165.276 24.4349ZM160.606 24.4349C160.606 21.5824 158.45 19.4945 155.996 19.4945H150.995V29.4347H155.996C158.42 29.3474 160.606 27.2875 160.606 24.4349Z" fill="white" />
			<path d="M171.804 14.9067V34.0225H167.134V14.9067H171.804Z" fill="white" />
			<path d="M190.427 31.4054H180.995L179.678 34.024H174.405L184.077 14.9082H187.61L196.922 34.024H191.742L190.427 31.4054ZM188.6 27.673L185.696 21.5263L182.936 27.673H188.6Z" fill="white" />
		</g>
		<defs>
			<clipPath id="clip0_80_133">
				<rect width="196.923" height="40" fill="white" />
			</clipPath>
		</defs>
	</symbol>
	<symbol id="top-slider-prev" viewBox="0 0 8 14" xmlns="http://www.w3.org/2000/svg">
		<path d="M7 1L1 7L7 13" stroke="#CC4391" stroke-width="2" stroke-linecap="round" stroke-linejoin="round" />
	</symbol>
	<symbol id="top-slider-next" viewBox="0 0 8 14" xmlns="http://www.w3.org/2000/svg">
		<path d="M1 13L7 7L1 1" stroke="#CC4391" stroke-width="2" stroke-linecap="round" stroke-linejoin="round" />
	</symbol>
	<symbol id="work-icon" viewBox="0 0 30 30" fill="none" xmlns="http://www.w3.org/2000/svg">
		<path d="M27.5 13.8501V15.0001C27.4985 17.6956 26.6256 20.3184 25.0117 22.4774C23.3977 24.6363 21.1291 26.2157 18.5442 26.98C15.9593 27.7442 13.1966 27.6525 10.6681 26.7183C8.1396 25.7842 5.98082 24.0577 4.5137 21.7964C3.04658 19.5351 2.34974 16.8602 2.5271 14.1705C2.70445 11.4808 3.74651 8.92048 5.49785 6.87142C7.24919 4.82235 9.61598 3.3943 12.2452 2.80026C14.8745 2.20621 17.6253 2.478 20.0875 3.57508" stroke="#CC4391" stroke-width="2.5" stroke-linecap="round" stroke-linejoin="round" />
		<path d="M27.5 5L15 17.5125L11.25 13.7625" stroke="#CC4391" stroke-width="2.5" stroke-linecap="round" stroke-linejoin="round" />
	</symbol>
</svg>